<svg width="400" height="400" viewBox="0 0 400 400" fill="none" xmlns="http://www.w3.org/2000/svg">
<path d="M328 221L330.943 219.087C335.218 216.308 340.788 216.396 345.005 219.263V219.263C348.42 221.586 350.5 225.472 350.5 229.603V229.603C350.5 231.827 349.905 234.011 348.778 235.928L348.659 236.13C346.657 239.534 343.25 241.875 339.355 242.524L324.5 245" stroke="#FFD7B1" stroke-width="5"/>
<path d="M220.584 250.072C215.908 258.531 207.357 265.613 198.656 260.804C189.955 255.995 191.422 244.998 196.098 236.539C200.773 228.08 216.392 200.244 228.141 207.88C239.127 212.81 225.259 241.613 220.584 250.072Z" fill="#FFAB2E"/>
<path d="M89.423 336C89.423 347 84.2742 347 77.923 347C71.5717 347 66.423 347 66.423 336C66.423 329.925 71.5717 325 77.923 325C84.2742 325 89.423 329.925 89.423 336Z" fill="#FFAB2E"/>
<path d="M192.423 336C192.423 347 187.274 347 180.923 347C174.572 347 169.423 347 169.423 336C169.423 329.925 174.572 325 180.923 325C187.274 325 192.423 329.925 192.423 336Z" fill="#FFAB2E"/>
<path d="M210.423 276C210.423 314.66 200.882 346 125.423 346C55.6015 346 40.423 314.66 40.423 276C40.423 237.34 49.9638 150.5 125.423 150.5C200.882 150.5 210.423 237.34 210.423 276Z" fill="#FFC56F"/>
<path d="M201.923 315.5C197.423 325.145 186.811 345.319 142.423 345.319C101.351 345.319 89.423 347.391 89.423 329C89.423 310.609 98.035 252.319 142.423 252.319C186.811 252.319 201.923 297.109 201.923 315.5Z" fill="#FFB13C"/>
<path d="M60.4918 150.274C60.3205 148.057 62.5356 146.431 64.5992 147.258L92.3156 158.369C94.4997 159.245 94.8715 162.179 92.9748 163.572L67.5599 182.233C65.6632 183.625 62.9747 182.392 62.7934 180.046L60.4918 150.274Z" fill="#FFC56F"/>
<path d="M186.505 147.259C188.568 146.431 190.784 148.058 190.612 150.275L188.309 180.046C188.128 182.392 185.439 183.626 183.543 182.233L158.128 163.571C156.232 162.179 156.604 159.244 158.788 158.369L186.505 147.259Z" fill="#FFC56F"/>
<circle cx="98.423" cy="209" r="6" fill="black"/>
<circle cx="168.423" cy="209" r="6" fill="black"/>
<path d="M139.244 223.213C138.105 224.23 136.383 224.23 135.245 223.213L129.679 218.237C127.625 216.401 128.924 213 131.678 213H142.811C145.565 213 146.863 216.401 144.81 218.237L139.244 223.213Z" fill="black"/>
<path d="M115.923 221V221C116.752 224.451 119.199 227.288 122.49 228.616L123.532 229.036C125.101 229.668 126.803 229.896 128.483 229.699V229.699C132.145 229.268 135.28 226.873 136.659 223.453L137.244 222" stroke="black" stroke-width="2.5"/>
<path d="M135.923 221V221C136.752 224.451 139.199 227.288 142.49 228.616L143.578 229.054C145.117 229.675 146.786 229.898 148.434 229.705V229.705C152.112 229.272 155.24 226.821 156.54 223.354L157.423 221" stroke="black" stroke-width="2.5"/>
<ellipse cx="95.923" cy="226.5" rx="7.5" ry="2.5" fill="#FFE8E8" fill-opacity="0.7"/>
<ellipse cx="173.923" cy="226.5" rx="7.5" ry="2.5" fill="#FFE8E8" fill-opacity="0.7"/>
<path d="M62.1281 237.346C66.8032 245.805 68.25 256.814 59.5493 261.622C50.8486 266.431 42.3169 259.338 37.6417 250.879C32.9666 242.42 17.706 214.386 30.423 208.5C40.4419 201.82 57.453 228.887 62.1281 237.346Z" fill="#FFAB2E"/>
<rect x="228" y="320" width="155" height="26" rx="5" fill="#FFBFBF"/>
<rect x="228" y="296" width="155" height="19" rx="5" fill="#B6FFE5"/>
<rect x="228" y="268" width="155" height="21" rx="5" fill="#EACFFF"/>
<path d="M279.164 336L281.774 328.137H282.805L285.426 336H284.621L283.901 333.857H280.635L279.948 336H279.164ZM282.263 328.685C282.209 328.849 282.119 329.134 281.994 329.539C281.872 329.94 281.783 330.231 281.726 330.414L280.818 333.271H283.718L282.805 330.409C282.597 329.764 282.417 329.189 282.263 328.685ZM286.286 336V328.083H287.048V336H286.286ZM292.215 333.083C292.215 332.733 292.178 332.425 292.103 332.16C292.027 331.891 291.934 331.683 291.823 331.537C291.716 331.386 291.585 331.266 291.431 331.177C291.281 331.084 291.139 331.023 291.007 330.994C290.878 330.965 290.744 330.951 290.604 330.951C290.343 330.951 290.112 331.014 289.911 331.139C289.711 331.261 289.551 331.427 289.433 331.639C289.319 331.85 289.233 332.083 289.175 332.337C289.118 332.591 289.089 332.863 289.089 333.153C289.089 333.923 289.222 334.518 289.487 334.937C289.755 335.355 290.119 335.565 290.577 335.565C290.738 335.565 290.889 335.549 291.028 335.517C291.168 335.481 291.313 335.413 291.463 335.312C291.614 335.212 291.741 335.082 291.845 334.92C291.952 334.756 292.04 334.532 292.108 334.249C292.18 333.966 292.215 333.639 292.215 333.266V333.083ZM290.652 338.304C289.7 338.304 289.05 338.014 288.703 337.434L289.148 337.01C289.442 337.482 289.956 337.719 290.69 337.719C291.202 337.719 291.583 337.556 291.834 337.23C292.088 336.904 292.215 336.444 292.215 335.85V335.302C291.796 335.853 291.241 336.129 290.55 336.129C289.848 336.129 289.302 335.859 288.912 335.318C288.522 334.774 288.327 334.059 288.327 333.175C288.327 332.634 288.407 332.158 288.568 331.746C288.733 331.331 288.982 331.001 289.315 330.758C289.648 330.514 290.049 330.393 290.518 330.393C291.231 330.393 291.816 330.667 292.274 331.214L292.317 330.505H292.93V335.893C292.93 336.605 292.733 337.185 292.339 337.633C291.949 338.08 291.386 338.304 290.652 338.304ZM296.475 330.393C297.18 330.393 297.749 330.636 298.183 331.123C298.616 331.606 298.833 332.314 298.833 333.245C298.833 334.168 298.619 334.881 298.193 335.382C297.771 335.88 297.196 336.129 296.469 336.129C295.742 336.129 295.166 335.882 294.74 335.388C294.317 334.89 294.106 334.181 294.106 333.261C294.106 332.323 294.323 331.61 294.756 331.123C295.189 330.636 295.762 330.393 296.475 330.393ZM296.469 330.951C296.168 330.951 295.911 331.017 295.696 331.15C295.481 331.279 295.316 331.458 295.202 331.687C295.091 331.916 295.01 332.158 294.96 332.412C294.91 332.666 294.885 332.944 294.885 333.245C294.885 333.485 294.899 333.71 294.928 333.921C294.956 334.133 295.008 334.342 295.083 334.55C295.159 334.754 295.254 334.929 295.368 335.076C295.486 335.223 295.639 335.341 295.825 335.431C296.014 335.52 296.231 335.565 296.475 335.565C296.715 335.565 296.928 335.52 297.114 335.431C297.304 335.341 297.456 335.225 297.57 335.082C297.688 334.935 297.785 334.759 297.86 334.555C297.936 334.351 297.987 334.143 298.016 333.932C298.045 333.721 298.059 333.495 298.059 333.255C298.059 333.019 298.043 332.795 298.011 332.584C297.982 332.373 297.93 332.165 297.855 331.961C297.78 331.757 297.683 331.583 297.565 331.44C297.45 331.293 297.298 331.175 297.108 331.085C296.922 330.996 296.709 330.951 296.469 330.951ZM300.723 330.505V331.537C300.823 331.29 300.968 331.085 301.158 330.924C301.348 330.76 301.541 330.649 301.738 330.591C301.939 330.53 302.148 330.5 302.367 330.5V331.193C302.069 331.193 301.812 331.247 301.593 331.354C301.378 331.461 301.21 331.61 301.088 331.8C300.97 331.99 300.882 332.195 300.825 332.417C300.771 332.639 300.745 332.881 300.745 333.143V336H299.982V330.505H300.723ZM303.188 329.329V328.368H303.946V329.329H303.188ZM303.199 336V330.505H303.962V336H303.199ZM307.856 335.329L307.985 335.828C307.716 336 307.401 336.086 307.04 336.086C306.567 336.086 306.223 335.943 306.008 335.656C305.797 335.366 305.691 334.899 305.691 334.254V331.037H304.87V330.505H305.74V328.749L306.454 328.55V330.505H307.657V331.037H306.454V334.598C306.454 335.207 306.701 335.511 307.195 335.511C307.36 335.511 307.58 335.45 307.856 335.329ZM311.358 330.951C311.093 330.951 310.857 330.996 310.649 331.085C310.445 331.175 310.277 331.295 310.144 331.445C310.012 331.592 309.902 331.773 309.816 331.988C309.73 332.199 309.67 332.421 309.634 332.654C309.602 332.887 309.585 333.137 309.585 333.406V336H308.823V328.088H309.585V330.344V331.37C310.004 330.718 310.633 330.393 311.471 330.393C311.714 330.393 311.933 330.421 312.126 330.479C312.323 330.532 312.486 330.604 312.615 330.693C312.747 330.783 312.862 330.896 312.958 331.032C313.055 331.168 313.13 331.304 313.184 331.44C313.238 331.576 313.281 331.734 313.313 331.913C313.345 332.088 313.365 332.247 313.372 332.391C313.383 332.534 313.388 332.693 313.388 332.869V336H312.625V332.81C312.625 332.197 312.531 331.735 312.341 331.424C312.155 331.109 311.827 330.951 311.358 330.951ZM315.483 332.869V336H314.72V330.505H315.456L315.478 331.375C315.678 331.032 315.932 330.783 316.24 330.629C316.548 330.471 316.878 330.393 317.229 330.393C317.637 330.393 317.97 330.493 318.228 330.693C318.485 330.894 318.664 331.173 318.765 331.531C318.947 331.148 319.205 330.863 319.538 330.677C319.875 330.487 320.235 330.393 320.618 330.393C320.911 330.393 321.164 330.444 321.375 330.548C321.59 330.652 321.756 330.783 321.875 330.94C321.996 331.094 322.091 331.29 322.159 331.526C322.231 331.762 322.276 331.986 322.293 332.197C322.315 332.405 322.326 332.641 322.326 332.906V336H321.563V332.74C321.563 332.464 321.545 332.222 321.509 332.015C321.477 331.807 321.42 331.621 321.337 331.456C321.259 331.291 321.148 331.166 321.004 331.08C320.861 330.994 320.688 330.951 320.483 330.951C320.179 330.951 319.903 331.044 319.656 331.23C319.409 331.417 319.221 331.653 319.092 331.939C318.963 332.222 318.899 332.518 318.899 332.826V336H318.136V332.74C318.136 332.163 318.056 331.721 317.895 331.413C317.733 331.105 317.458 330.951 317.067 330.951C316.756 330.951 316.477 331.048 316.229 331.241C315.982 331.431 315.796 331.671 315.671 331.961C315.546 332.247 315.483 332.55 315.483 332.869ZM327.498 331.456C327.151 331.653 326.977 331.753 326.977 331.757C326.855 331.478 326.685 331.277 326.467 331.155C326.248 331.03 325.96 330.967 325.602 330.967C325.158 330.967 324.821 331.048 324.592 331.209C324.363 331.37 324.249 331.608 324.249 331.923C324.249 332.049 324.272 332.16 324.318 332.256C324.368 332.353 324.431 332.434 324.506 332.498C324.585 332.559 324.691 332.616 324.823 332.67C324.956 332.72 325.083 332.759 325.205 332.788C325.33 332.817 325.486 332.849 325.672 332.885C326.295 332.999 326.762 333.178 327.074 333.422C327.389 333.662 327.546 334.009 327.546 334.464C327.546 335.005 327.366 335.418 327.004 335.705C326.642 335.987 326.098 336.129 325.371 336.129C325.153 336.129 324.941 336.106 324.737 336.059C324.537 336.016 324.342 335.946 324.152 335.85C323.966 335.749 323.801 335.61 323.658 335.431C323.514 335.248 323.409 335.035 323.341 334.792L323.921 334.555C324.05 334.906 324.229 335.16 324.458 335.318C324.687 335.475 325.015 335.554 325.441 335.554C326.383 335.554 326.854 335.239 326.854 334.609C326.854 334.265 326.746 334.023 326.531 333.884C326.316 333.741 325.863 333.597 325.172 333.454C324.965 333.411 324.789 333.368 324.646 333.325C324.506 333.279 324.36 333.216 324.206 333.137C324.055 333.058 323.933 332.969 323.84 332.869C323.751 332.765 323.676 332.632 323.615 332.471C323.557 332.31 323.529 332.124 323.529 331.913C323.529 331.429 323.715 331.055 324.087 330.79C324.463 330.525 324.954 330.393 325.559 330.393C326.046 330.393 326.444 330.473 326.751 330.634C327.059 330.795 327.308 331.069 327.498 331.456Z" fill="black"/>
<path d="M265.877 310V302.142H267.011L269.519 307.825L272.097 302.147H273.123V310H272.403V303.152L269.852 308.657H269.127L266.624 303.12V310H265.877ZM276.786 304.393C277.492 304.393 278.061 304.636 278.494 305.123C278.927 305.606 279.144 306.314 279.144 307.245C279.144 308.168 278.931 308.881 278.505 309.382C278.082 309.88 277.508 310.129 276.781 310.129C276.054 310.129 275.477 309.882 275.051 309.388C274.629 308.89 274.417 308.181 274.417 307.261C274.417 306.323 274.634 305.61 275.067 305.123C275.501 304.636 276.074 304.393 276.786 304.393ZM276.781 304.951C276.48 304.951 276.222 305.017 276.007 305.15C275.792 305.279 275.628 305.458 275.513 305.687C275.402 305.916 275.322 306.158 275.271 306.412C275.221 306.666 275.196 306.944 275.196 307.245C275.196 307.485 275.211 307.71 275.239 307.921C275.268 308.133 275.32 308.342 275.395 308.55C275.47 308.754 275.565 308.929 275.68 309.076C275.798 309.223 275.95 309.341 276.136 309.431C276.326 309.52 276.543 309.565 276.786 309.565C277.026 309.565 277.239 309.52 277.425 309.431C277.615 309.341 277.767 309.225 277.882 309.082C278 308.935 278.097 308.759 278.172 308.555C278.247 308.351 278.299 308.143 278.328 307.932C278.356 307.721 278.371 307.495 278.371 307.255C278.371 307.019 278.354 306.795 278.322 306.584C278.294 306.373 278.242 306.165 278.167 305.961C278.091 305.757 277.995 305.583 277.876 305.44C277.762 305.293 277.61 305.175 277.42 305.085C277.234 304.996 277.021 304.951 276.781 304.951ZM280.358 310V302.083H281.121V310H280.358ZM284.751 304.393C285.124 304.393 285.451 304.459 285.734 304.591C286.021 304.72 286.25 304.903 286.422 305.139C286.594 305.372 286.723 305.642 286.809 305.95C286.895 306.258 286.938 306.598 286.938 306.971C286.938 307.092 286.932 307.2 286.921 307.293H283.167C283.167 307.604 283.197 307.895 283.258 308.163C283.319 308.428 283.41 308.668 283.532 308.883C283.658 309.094 283.826 309.261 284.037 309.382C284.252 309.504 284.499 309.565 284.778 309.565C285.14 309.565 285.437 309.483 285.67 309.318C285.903 309.15 286.067 308.915 286.164 308.614L286.755 308.743C286.673 309.048 286.528 309.307 286.32 309.522C286.112 309.733 285.879 309.887 285.622 309.984C285.364 310.077 285.09 310.125 284.8 310.129H284.778C284.374 310.129 284.014 310.05 283.699 309.893C283.387 309.735 283.137 309.522 282.947 309.253C282.761 308.981 282.621 308.677 282.528 308.34C282.435 308 282.388 307.637 282.388 307.25C282.388 306.394 282.596 305.705 283.011 305.182C283.43 304.656 284.01 304.393 284.751 304.393ZM286.202 306.793C286.198 306.206 286.076 305.751 285.836 305.429C285.597 305.107 285.228 304.946 284.73 304.946C284.49 304.946 284.275 304.994 284.085 305.091C283.896 305.188 283.738 305.322 283.613 305.494C283.491 305.666 283.394 305.861 283.323 306.079C283.251 306.298 283.205 306.536 283.183 306.793H286.202ZM287.91 307.266C287.91 306.704 287.997 306.21 288.173 305.784C288.348 305.358 288.619 305.019 288.984 304.769C289.349 304.518 289.79 304.393 290.305 304.393C290.527 304.393 290.735 304.419 290.928 304.473C291.125 304.527 291.315 304.615 291.498 304.736C291.684 304.858 291.847 305.032 291.986 305.257C292.13 305.483 292.237 305.751 292.309 306.063L291.669 306.235C291.555 305.798 291.39 305.476 291.175 305.268C290.964 305.057 290.685 304.951 290.337 304.951C289.786 304.951 289.372 305.157 289.097 305.569C288.825 305.977 288.688 306.537 288.688 307.25C288.688 307.597 288.719 307.909 288.78 308.185C288.841 308.46 288.932 308.704 289.054 308.915C289.179 309.123 289.344 309.284 289.548 309.398C289.756 309.509 289.995 309.565 290.268 309.565C290.98 309.565 291.46 309.144 291.707 308.303L292.292 308.485C292.228 308.775 292.124 309.03 291.981 309.248C291.841 309.466 291.677 309.638 291.487 309.764C291.301 309.889 291.104 309.98 290.896 310.038C290.688 310.098 290.473 310.129 290.251 310.129C289.492 310.129 288.912 309.869 288.511 309.35C288.11 308.827 287.91 308.133 287.91 307.266ZM297.057 307.658V304.505H297.819V310H297.078V308.969C296.935 309.348 296.679 309.637 296.31 309.833C295.945 310.03 295.558 310.129 295.15 310.129C294.917 310.129 294.706 310.1 294.516 310.043C294.33 309.989 294.174 309.919 294.049 309.833C293.927 309.744 293.82 309.631 293.727 309.495C293.637 309.355 293.567 309.219 293.517 309.087C293.471 308.954 293.433 308.799 293.404 308.62C293.376 308.437 293.358 308.278 293.351 308.142C293.343 308.002 293.34 307.841 293.34 307.658V304.505H294.103V307.819C294.103 308.385 294.19 308.813 294.366 309.103C294.541 309.389 294.847 309.533 295.284 309.533C295.553 309.533 295.794 309.488 296.009 309.398C296.224 309.309 296.394 309.198 296.52 309.065C296.648 308.929 296.754 308.775 296.836 308.604C296.922 308.428 296.98 308.263 297.008 308.109C297.041 307.952 297.057 307.801 297.057 307.658ZM299.415 310V302.083H300.177V310H299.415ZM304.958 308.824C304.338 309.347 303.744 309.608 303.174 309.608C302.494 309.608 302.154 309.264 302.154 308.577C302.154 308.444 302.174 308.328 302.213 308.228C302.252 308.127 302.319 308.04 302.412 307.964C302.508 307.886 302.612 307.819 302.723 307.766C302.834 307.708 302.986 307.656 303.18 307.61C303.373 307.56 303.559 307.519 303.738 307.486C303.917 307.451 304.148 307.411 304.431 307.368L304.958 307.288V308.824ZM305.092 310H305.72V306.385C305.72 305.057 305.047 304.393 303.701 304.393C302.78 304.393 302.1 304.672 301.66 305.23C301.964 305.517 302.116 305.662 302.116 305.666C302.295 305.444 302.519 305.273 302.788 305.155C303.06 305.037 303.35 304.978 303.658 304.978C304.13 304.978 304.465 305.091 304.662 305.316C304.859 305.538 304.958 305.948 304.958 306.546V306.772L304.426 306.853C304.114 306.899 303.882 306.937 303.728 306.965C303.574 306.99 303.369 307.032 303.115 307.089C302.861 307.143 302.669 307.196 302.541 307.25C302.415 307.3 302.268 307.372 302.1 307.465C301.932 307.554 301.808 307.655 301.729 307.766C301.651 307.873 301.581 308.006 301.52 308.163C301.463 308.317 301.434 308.491 301.434 308.684C301.434 309.142 301.586 309.499 301.891 309.753C302.199 310.004 302.582 310.129 303.04 310.129C303.735 310.129 304.388 309.878 305 309.377L305.092 310ZM307.826 304.505V305.537C307.926 305.29 308.071 305.085 308.261 304.924C308.451 304.76 308.644 304.649 308.841 304.591C309.041 304.53 309.251 304.5 309.469 304.5V305.193C309.172 305.193 308.914 305.247 308.696 305.354C308.481 305.461 308.313 305.61 308.191 305.8C308.073 305.99 307.985 306.195 307.928 306.417C307.874 306.639 307.847 306.881 307.847 307.143V310H307.084V304.505H307.826ZM313.557 302.711V305.504H314.781C314.996 305.504 315.175 305.504 315.318 305.504C315.465 305.501 315.623 305.495 315.791 305.488C315.963 305.478 316.103 305.465 316.21 305.451C316.321 305.436 316.439 305.417 316.564 305.392C316.69 305.367 316.79 305.336 316.865 305.3C316.944 305.264 317.023 305.222 317.102 305.171C317.18 305.118 317.243 305.057 317.29 304.989C317.336 304.921 317.377 304.842 317.413 304.752C317.452 304.663 317.479 304.564 317.494 304.457C317.512 304.346 317.521 304.224 317.521 304.092C317.521 303.945 317.506 303.812 317.478 303.694C317.452 303.573 317.417 303.469 317.37 303.383C317.327 303.293 317.266 303.215 317.188 303.146C317.112 303.075 317.035 303.016 316.957 302.969C316.881 302.923 316.785 302.883 316.667 302.851C316.552 302.815 316.444 302.79 316.344 302.776C316.248 302.758 316.124 302.744 315.974 302.733C315.827 302.722 315.698 302.717 315.587 302.717C315.479 302.713 315.342 302.711 315.173 302.711H313.557ZM313.562 306.079V309.425H315.249C315.453 309.425 315.625 309.424 315.764 309.42C315.904 309.413 316.067 309.398 316.253 309.377C316.443 309.352 316.6 309.318 316.726 309.275C316.851 309.228 316.982 309.166 317.118 309.087C317.254 309.005 317.363 308.906 317.445 308.792C317.528 308.677 317.594 308.534 317.644 308.362C317.698 308.186 317.725 307.989 317.725 307.771C317.725 307.592 317.708 307.431 317.676 307.288C317.648 307.141 317.61 307.012 317.563 306.901C317.517 306.79 317.451 306.693 317.365 306.611C317.279 306.525 317.195 306.453 317.112 306.396C317.03 306.339 316.924 306.29 316.795 306.251C316.667 306.208 316.547 306.176 316.436 306.154C316.328 306.133 316.194 306.117 316.033 306.106C315.872 306.095 315.728 306.088 315.603 306.084C315.481 306.081 315.329 306.079 315.146 306.079H313.562ZM312.778 310V302.137H315.136C315.386 302.137 315.614 302.144 315.818 302.158C316.026 302.169 316.24 302.192 316.462 302.228C316.684 302.264 316.88 302.312 317.048 302.373C317.22 302.434 317.384 302.514 317.542 302.615C317.7 302.715 317.828 302.833 317.929 302.969C318.033 303.105 318.115 303.272 318.176 303.469C318.237 303.662 318.267 303.879 318.267 304.119C318.267 305.042 317.782 305.589 316.812 305.757C317.374 305.868 317.796 306.101 318.079 306.455C318.362 306.81 318.503 307.252 318.503 307.782C318.503 308.222 318.435 308.586 318.299 308.872C318.163 309.159 317.943 309.386 317.639 309.554C317.334 309.719 316.969 309.835 316.543 309.903C316.117 309.968 315.583 310 314.942 310H312.778ZM319.669 303.329V302.368H320.426V303.329H319.669ZM319.68 310V304.505H320.442V310H319.68ZM324.009 304.393C324.714 304.393 325.284 304.636 325.717 305.123C326.15 305.606 326.367 306.314 326.367 307.245C326.367 308.168 326.154 308.881 325.728 309.382C325.305 309.88 324.73 310.129 324.003 310.129C323.277 310.129 322.7 309.882 322.274 309.388C321.851 308.89 321.64 308.181 321.64 307.261C321.64 306.323 321.857 305.61 322.29 305.123C322.723 304.636 323.296 304.393 324.009 304.393ZM324.003 304.951C323.703 304.951 323.445 305.017 323.23 305.15C323.015 305.279 322.85 305.458 322.736 305.687C322.625 305.916 322.544 306.158 322.494 306.412C322.444 306.666 322.419 306.944 322.419 307.245C322.419 307.485 322.433 307.71 322.462 307.921C322.491 308.133 322.542 308.342 322.618 308.55C322.693 308.754 322.788 308.929 322.902 309.076C323.021 309.223 323.173 309.341 323.359 309.431C323.549 309.52 323.765 309.565 324.009 309.565C324.249 309.565 324.462 309.52 324.648 309.431C324.838 309.341 324.99 309.225 325.104 309.082C325.223 308.935 325.319 308.759 325.395 308.555C325.47 308.351 325.522 308.143 325.55 307.932C325.579 307.721 325.593 307.495 325.593 307.255C325.593 307.019 325.577 306.795 325.545 306.584C325.516 306.373 325.464 306.165 325.389 305.961C325.314 305.757 325.217 305.583 325.099 305.44C324.985 305.293 324.832 305.175 324.643 305.085C324.456 304.996 324.243 304.951 324.003 304.951ZM327.581 310V302.083H328.343V310H327.581ZM331.979 304.393C332.685 304.393 333.254 304.636 333.688 305.123C334.121 305.606 334.337 306.314 334.337 307.245C334.337 308.168 334.124 308.881 333.698 309.382C333.276 309.88 332.701 310.129 331.974 310.129C331.247 310.129 330.671 309.882 330.245 309.388C329.822 308.89 329.611 308.181 329.611 307.261C329.611 306.323 329.827 305.61 330.261 305.123C330.694 304.636 331.267 304.393 331.979 304.393ZM331.974 304.951C331.673 304.951 331.416 305.017 331.201 305.15C330.986 305.279 330.821 305.458 330.707 305.687C330.596 305.916 330.515 306.158 330.465 306.412C330.415 306.666 330.39 306.944 330.39 307.245C330.39 307.485 330.404 307.71 330.433 307.921C330.461 308.133 330.513 308.342 330.588 308.55C330.664 308.754 330.758 308.929 330.873 309.076C330.991 309.223 331.143 309.341 331.33 309.431C331.519 309.52 331.736 309.565 331.979 309.565C332.219 309.565 332.432 309.52 332.619 309.431C332.808 309.341 332.961 309.225 333.075 309.082C333.193 308.935 333.29 308.759 333.365 308.555C333.44 308.351 333.492 308.143 333.521 307.932C333.55 307.721 333.564 307.495 333.564 307.255C333.564 307.019 333.548 306.795 333.516 306.584C333.487 306.373 333.435 306.165 333.36 305.961C333.285 305.757 333.188 305.583 333.07 305.44C332.955 305.293 332.803 305.175 332.613 305.085C332.427 304.996 332.214 304.951 331.974 304.951ZM339.225 307.083C339.225 306.733 339.188 306.425 339.112 306.16C339.037 305.891 338.944 305.683 338.833 305.537C338.726 305.386 338.595 305.266 338.441 305.177C338.291 305.084 338.149 305.023 338.017 304.994C337.888 304.965 337.753 304.951 337.614 304.951C337.352 304.951 337.121 305.014 336.921 305.139C336.72 305.261 336.561 305.427 336.443 305.639C336.328 305.85 336.242 306.083 336.185 306.337C336.128 306.591 336.099 306.863 336.099 307.153C336.099 307.923 336.232 308.518 336.497 308.937C336.765 309.355 337.129 309.565 337.587 309.565C337.748 309.565 337.898 309.549 338.038 309.517C338.178 309.481 338.323 309.413 338.473 309.312C338.624 309.212 338.751 309.082 338.854 308.92C338.962 308.756 339.05 308.532 339.118 308.249C339.189 307.966 339.225 307.639 339.225 307.266V307.083ZM337.662 312.304C336.71 312.304 336.06 312.014 335.712 311.434L336.158 311.01C336.452 311.482 336.966 311.719 337.7 311.719C338.212 311.719 338.593 311.556 338.844 311.23C339.098 310.904 339.225 310.444 339.225 309.85V309.302C338.806 309.853 338.251 310.129 337.56 310.129C336.858 310.129 336.312 309.859 335.922 309.318C335.532 308.774 335.336 308.059 335.336 307.175C335.336 306.634 335.417 306.158 335.578 305.746C335.743 305.331 335.992 305.001 336.325 304.758C336.658 304.514 337.059 304.393 337.528 304.393C338.24 304.393 338.826 304.667 339.284 305.214L339.327 304.505H339.939V309.893C339.939 310.605 339.743 311.185 339.349 311.633C338.958 312.08 338.396 312.304 337.662 312.304ZM342.91 309.656L340.804 304.505H341.588C341.588 304.505 341.69 304.769 341.895 305.295C342.099 305.818 342.344 306.446 342.63 307.18C342.917 307.914 343.139 308.476 343.296 308.867C343.604 308.065 344.172 306.611 344.999 304.505H345.751C345.504 305.132 345.148 306.02 344.682 307.169C344.22 308.319 343.912 309.089 343.758 309.479C343.629 309.805 343.517 310.068 343.42 310.269C343.327 310.473 343.214 310.677 343.082 310.881C342.949 311.085 342.813 311.241 342.673 311.348C342.537 311.459 342.373 311.549 342.179 311.617C341.986 311.685 341.769 311.719 341.529 311.719C341.34 311.719 341.152 311.694 340.965 311.644L341.046 311.037C341.211 311.062 341.368 311.074 341.519 311.074C342.124 311.074 342.546 310.722 342.786 310.016L342.91 309.656Z" fill="black"/>
<path d="M287.765 282H282.968V274.137H283.752V281.393H287.765V282ZM290.509 276.393C290.882 276.393 291.209 276.459 291.492 276.591C291.779 276.72 292.008 276.903 292.18 277.139C292.352 277.372 292.48 277.642 292.566 277.95C292.652 278.258 292.695 278.598 292.695 278.971C292.695 279.092 292.69 279.2 292.679 279.293H288.925C288.925 279.604 288.955 279.895 289.016 280.163C289.077 280.428 289.168 280.668 289.29 280.883C289.415 281.094 289.584 281.261 289.795 281.382C290.01 281.504 290.257 281.565 290.536 281.565C290.898 281.565 291.195 281.483 291.428 281.318C291.66 281.15 291.825 280.915 291.922 280.614L292.513 280.743C292.43 281.048 292.285 281.307 292.078 281.522C291.87 281.733 291.637 281.887 291.379 281.984C291.122 282.077 290.848 282.125 290.558 282.129H290.536C290.132 282.129 289.772 282.05 289.457 281.893C289.145 281.735 288.894 281.522 288.705 281.253C288.518 280.981 288.379 280.677 288.286 280.34C288.193 280 288.146 279.637 288.146 279.25C288.146 278.394 288.354 277.705 288.769 277.182C289.188 276.656 289.768 276.393 290.509 276.393ZM291.959 278.793C291.956 278.206 291.834 277.751 291.594 277.429C291.354 277.107 290.986 276.946 290.488 276.946C290.248 276.946 290.033 276.994 289.843 277.091C289.653 277.188 289.496 277.322 289.371 277.494C289.249 277.666 289.152 277.861 289.081 278.079C289.009 278.298 288.962 278.536 288.941 278.793H291.959ZM297.18 280.824C296.561 281.347 295.966 281.608 295.397 281.608C294.717 281.608 294.376 281.264 294.376 280.577C294.376 280.444 294.396 280.328 294.436 280.228C294.475 280.127 294.541 280.04 294.634 279.964C294.731 279.886 294.835 279.819 294.946 279.766C295.057 279.708 295.209 279.656 295.402 279.61C295.596 279.56 295.782 279.519 295.961 279.486C296.14 279.451 296.371 279.411 296.654 279.368L297.18 279.288V280.824ZM297.314 282H297.943V278.385C297.943 277.057 297.27 276.393 295.923 276.393C295.003 276.393 294.323 276.672 293.882 277.23C294.187 277.517 294.339 277.662 294.339 277.666C294.518 277.444 294.742 277.273 295.01 277.155C295.282 277.037 295.572 276.978 295.88 276.978C296.353 276.978 296.688 277.091 296.885 277.316C297.082 277.538 297.18 277.948 297.18 278.546V278.772L296.648 278.853C296.337 278.899 296.104 278.937 295.95 278.965C295.796 278.99 295.592 279.032 295.338 279.089C295.084 279.143 294.892 279.196 294.763 279.25C294.638 279.3 294.491 279.372 294.323 279.465C294.154 279.554 294.031 279.655 293.952 279.766C293.873 279.873 293.804 280.006 293.743 280.163C293.685 280.317 293.657 280.491 293.657 280.684C293.657 281.142 293.809 281.499 294.113 281.753C294.421 282.004 294.804 282.129 295.263 282.129C295.957 282.129 296.611 281.878 297.223 281.377L297.314 282ZM300.048 276.505V277.537C300.149 277.29 300.294 277.085 300.483 276.924C300.673 276.76 300.867 276.649 301.063 276.591C301.264 276.53 301.473 276.5 301.692 276.5V277.193C301.395 277.193 301.137 277.247 300.918 277.354C300.704 277.461 300.535 277.61 300.414 277.8C300.295 277.99 300.208 278.195 300.15 278.417C300.097 278.639 300.07 278.881 300.07 279.143V282H299.307V276.505H300.048ZM302.471 282V276.505H303.212C303.212 276.548 303.212 276.606 303.212 276.677C303.212 276.749 303.212 276.862 303.212 277.016C303.212 277.166 303.212 277.291 303.212 277.392V277.542C303.28 277.345 303.386 277.171 303.529 277.021C303.672 276.867 303.833 276.747 304.012 276.661C304.195 276.572 304.381 276.505 304.571 276.462C304.761 276.416 304.949 276.393 305.135 276.393C305.346 276.393 305.538 276.412 305.709 276.452C305.885 276.491 306.034 276.55 306.155 276.629C306.277 276.704 306.384 276.788 306.478 276.881C306.571 276.971 306.646 277.082 306.703 277.214C306.76 277.347 306.807 277.474 306.843 277.596C306.882 277.714 306.911 277.854 306.929 278.015C306.947 278.176 306.957 278.317 306.961 278.439C306.968 278.561 306.972 278.702 306.972 278.863V282H306.209V278.761C306.209 278.532 306.198 278.332 306.177 278.16C306.159 277.988 306.123 277.827 306.069 277.676C306.016 277.526 305.944 277.404 305.854 277.311C305.769 277.214 305.656 277.139 305.516 277.085C305.38 277.032 305.217 277.005 305.027 277.005C304.752 277.005 304.508 277.044 304.297 277.123C304.089 277.202 303.917 277.309 303.781 277.445C303.649 277.581 303.541 277.75 303.459 277.95C303.377 278.151 303.318 278.362 303.282 278.584C303.25 278.802 303.233 279.048 303.233 279.32V282H302.471ZM314.002 273.992C314.715 273.992 315.32 274.169 315.818 274.523C316.319 274.874 316.665 275.394 316.854 276.081L316.135 276.248C316.006 275.746 315.762 275.351 315.404 275.061C315.046 274.767 314.57 274.62 313.976 274.62C313.084 274.62 312.443 274.91 312.053 275.49C311.666 276.07 311.473 276.919 311.473 278.036C311.473 278.512 311.496 278.928 311.542 279.282C311.593 279.637 311.677 279.957 311.795 280.244C311.913 280.53 312.067 280.765 312.257 280.947C312.45 281.126 312.69 281.264 312.977 281.361C313.263 281.454 313.601 281.5 313.992 281.5C315.105 281.5 315.845 280.992 316.21 279.975L316.881 280.185C316.667 280.833 316.301 281.32 315.786 281.646C315.274 281.971 314.661 282.134 313.949 282.134C312.839 282.134 312.012 281.81 311.467 281.162C310.923 280.51 310.651 279.468 310.651 278.036C310.651 276.654 310.943 275.635 311.526 274.98C312.11 274.321 312.935 273.992 314.002 273.992ZM317.676 278.385V277.848H319.309V276.092H319.857V277.848H321.468V278.385H319.857V280.12H319.309V278.385H317.676ZM322.295 278.385V277.848H323.928V276.092H324.476V277.848H326.087V278.385H324.476V280.12H323.928V278.385H322.295ZM327.554 280.362L327.269 274.137H328.177L327.871 280.362H327.554ZM327.269 280.942H328.15V282H327.269V280.942Z" fill="black"/>
<rect x="241" y="268" width="7" height="21" rx="0.5" fill="white"/>
<rect x="241" y="296" width="5" height="19" rx="0.5" fill="#FFFCFC"/>
<rect x="241" y="320" width="10" height="26" fill="white"/>
<path d="M275.082 208.902C274.519 205.83 276.878 203 280 203H327.242C330.282 203 332.619 205.691 332.192 208.701L325.109 258.701C324.76 261.167 322.649 263 320.158 263H289.167C286.753 263 284.684 261.276 284.249 258.902L275.082 208.902Z" fill="#FFD7B1"/>
<path d="M275.11 208.921C274.533 205.844 276.894 203 280.025 203H327.336C330.344 203 332.671 205.636 332.297 208.62L332 211H275.5L275.11 208.921Z" fill="#FFCC81"/>
<path d="M291.795 186.988C292.349 186.36 293.146 186 293.984 186H298L294.362 186.99C293.849 187.129 293.422 187.483 293.188 187.96V187.96C292.87 188.608 292.959 189.382 293.416 189.941L294.889 191.744L295.432 192.576C296.175 193.712 296.134 195.19 295.33 196.283V196.283C295.04 196.678 294.664 197.003 294.23 197.232L290.889 199L292.703 197.273C292.973 197.015 293.203 196.717 293.383 196.39V196.39C294.036 195.206 293.982 193.757 293.242 192.625L292.866 192.05C292.734 191.847 292.581 191.657 292.411 191.483L291.9 190.962C290.829 189.869 290.783 188.135 291.795 186.988V186.988Z" fill="#C4C4C4"/>
<path d="M301.795 186.988C302.349 186.36 303.146 186 303.984 186H308L304.362 186.99C303.849 187.129 303.422 187.483 303.188 187.96V187.96C302.87 188.608 302.959 189.382 303.416 189.941L304.889 191.744L305.432 192.576C306.175 193.712 306.134 195.19 305.33 196.283V196.283C305.04 196.678 304.664 197.003 304.23 197.232L300.889 199L302.703 197.273C302.973 197.015 303.203 196.717 303.383 196.39V196.39C304.036 195.206 303.982 193.757 303.242 192.625L302.866 192.05C302.734 191.847 302.581 191.657 302.411 191.483L301.9 190.962C300.829 189.869 300.783 188.135 301.795 186.988V186.988Z" fill="#C4C4C4"/>
<path d="M311.795 186.988C312.349 186.36 313.146 186 313.984 186H318L314.362 186.99C313.849 187.129 313.422 187.483 313.188 187.96V187.96C312.87 188.608 312.959 189.382 313.416 189.941L314.889 191.744L315.432 192.576C316.175 193.712 316.134 195.19 315.33 196.283V196.283C315.04 196.678 314.664 197.003 314.23 197.232L310.889 199L312.703 197.273C312.973 197.015 313.203 196.717 313.383 196.39V196.39C314.036 195.206 313.982 193.757 313.242 192.625L312.866 192.05C312.734 191.847 312.581 191.657 312.411 191.483L311.9 190.962C310.829 189.869 310.783 188.135 311.795 186.988V186.988Z" fill="#C4C4C4"/>
</svg>
