<svg width="929" height="531" viewBox="0 0 929 531" fill="none" xmlns="http://www.w3.org/2000/svg">
<path d="M438.488 224.24L423.569 244.776C421.532 247.58 419.867 250.637 418.618 253.871L414.688 264.043C412.911 268.641 412 273.529 412 278.459L412 290.128C412 292.372 412.189 294.612 412.565 296.824L415.935 316.675C416.311 318.888 416.5 321.128 416.5 323.372L416.5 337" stroke="#50A333" stroke-width="8"/>
<path d="M454.22 318.485C445.936 332.833 425.685 352.239 417.314 347.407C408.944 342.574 415.625 315.333 423.909 300.985C432.193 286.636 450.694 270.261 459.064 275.094C467.435 279.926 462.504 304.136 454.22 318.485Z" fill="#B0ED9A"/>
<path d="M408.242 300.966C416.526 315.315 423.206 342.556 414.836 347.388C406.466 352.221 386.215 332.815 377.931 318.466C369.646 304.118 364.716 279.908 373.086 275.075C381.456 270.243 399.957 286.618 408.242 300.966Z" fill="#71BC57"/>
<path d="M360.595 364.239C359.787 361.076 362.175 358 365.439 358H464.771C467.968 358 470.344 360.96 469.652 364.082L452.368 442.082C451.861 444.371 449.831 446 447.487 446H385.382C383.098 446 381.104 444.452 380.538 442.239L360.595 364.239Z" fill="#E6AD79"/>
<path d="M368 367H469L468.5 370H368V367Z" fill="#CE9F68"/>
<path d="M347 345C347 342.239 349.239 340 352 340H477C479.761 340 482 342.239 482 345V363C482 365.761 479.761 368 477 368H352C349.239 368 347 365.761 347 363V345Z" fill="#E6AD79"/>
<path d="M410.839 227.098C417.547 220.991 432.002 214.759 436.382 219.318C440.763 223.877 433.411 237.5 426.703 243.608C419.995 249.715 406.958 254.656 402.577 250.097C398.197 245.538 404.132 233.205 410.839 227.098Z" fill="#FFCACA"/>
<path d="M420.357 202.397C428.778 206.62 440.208 217.871 437.421 223.282C434.634 228.692 418.686 226.213 410.264 221.99C401.843 217.766 392.192 207.408 394.979 201.997C397.766 196.587 411.935 198.173 420.357 202.397Z" fill="#FFCACA"/>
<path d="M446.795 201.285C445.443 210.272 438.212 223.963 432.002 222.833C425.792 221.703 422.954 206.18 424.306 197.193C425.657 188.207 432.603 176.414 438.813 177.544C445.023 178.674 448.146 192.299 446.795 201.285Z" fill="#FFCACA"/>
<path d="M459.481 229.341C450.223 230.246 434.489 226.762 433.642 220.651C432.794 214.54 447.155 208.117 456.412 207.212C465.669 206.308 479.448 209.983 480.295 216.094C481.143 222.204 468.738 228.437 459.481 229.341Z" fill="#FFCACA"/>
<path d="M434.699 245.244C431.223 236.697 430.322 221.108 436.179 219.017C442.037 216.925 452.435 229.123 455.911 237.67C459.387 246.217 459.554 260 453.696 262.092C447.839 264.183 438.175 253.791 434.699 245.244Z" fill="#FFCACA"/>
<path d="M432.739 197.757C438.26 205.298 443.116 220.354 438.039 223.803C432.961 227.253 419.872 217.79 414.352 210.249C408.832 202.707 405.142 189.245 410.219 185.796C415.296 182.346 427.219 190.215 432.739 197.757Z" fill="#FFDCDC"/>
<path d="M413.329 212.283C422.577 211.318 438.331 214.698 439.221 220.805C440.111 226.911 425.799 233.431 416.55 234.397C407.302 235.362 393.501 231.778 392.612 225.671C391.722 219.565 404.08 213.249 413.329 212.283Z" fill="#FFDCDC"/>
<path d="M421.609 239.488C422.898 230.51 430.046 216.78 436.28 217.844C442.513 218.907 445.471 234.363 444.182 243.341C442.893 252.319 436.016 264.153 429.783 263.089C423.549 262.025 420.319 248.466 421.609 239.488Z" fill="#FFDCDC"/>
<path d="M457.486 214.47C450.915 220.717 436.608 227.247 432.134 222.775C427.66 218.304 434.713 204.523 441.283 198.276C447.853 192.028 460.772 186.818 465.246 191.29C469.721 195.762 464.056 208.222 457.486 214.47Z" fill="#FFDCDC"/>
<path d="M444.921 239.776C437.365 234.156 428.083 221.1 431.784 216.265C435.486 211.431 450.768 216.647 458.324 222.268C465.88 227.888 473.565 239.756 469.864 244.591C466.163 249.426 452.476 245.397 444.921 239.776Z" fill="#FFDCDC"/>
<circle cx="435" cy="221" r="7" fill="#F4F5BF"/>
<rect x="20" y="451" width="872" height="28" rx="14" fill="#8B5B22"/>
<rect x="49" y="224" width="319" height="193" rx="15" fill="#C4C4C4"/>
<rect x="39" y="422" width="348" height="24" rx="10" fill="#C4C4C4"/>
<path d="M70 254.036C70 248.499 74.4992 244.016 80.0361 244.036L337.036 244.964C342.545 244.984 347 249.466 347 254.975C347 305.775 347 338.171 347 388.954C347 394.491 342.501 398.984 336.964 398.964L79.9639 398.036C74.4552 398.016 70 393.545 70 388.036V254.036Z" fill="#7B7777"/>
<path d="M70 254C70 248.477 74.4772 244 80 244H337C342.523 244 347 248.477 347 254V270H70V254Z" fill="white"/>
<circle cx="95" cy="257" r="4" fill="#FBFE5D"/>
<circle cx="107" cy="257" r="4" fill="#74FE5D"/>
<circle cx="83" cy="257" r="4" fill="#FF6363"/>
<circle cx="83" cy="257" r="4" fill="#FF6363"/>
<rect x="101" y="278" width="150" height="7" rx="3.5" fill="#FFE8E8" fill-opacity="0.7"/>
<rect x="101" y="293" width="103" height="7" rx="3.5" fill="#D5FFF7" fill-opacity="0.7"/>
<rect x="101" y="308" width="133" height="7" rx="3.5" fill="#FEEDFF" fill-opacity="0.7"/>
<rect x="101" y="323" width="155" height="7" rx="3.5" fill="#D6FFEB" fill-opacity="0.75"/>
<rect x="101" y="338" width="170" height="7" rx="3.5" fill="#FFE8E8" fill-opacity="0.7"/>
<rect x="101" y="353" width="72" height="7" rx="3.5" fill="#FEEDFF" fill-opacity="0.75"/>
<rect x="101" y="368" width="122" height="7" rx="3.5" fill="#D5FFF7" fill-opacity="0.75"/>
<rect x="101" y="383" width="150" height="7" rx="3.5" fill="#D6FFEB" fill-opacity="0.7"/>
<path d="M82.6816 277.326C83.1725 277.326 83.6021 277.415 83.9702 277.592C84.3426 277.766 84.6304 278.02 84.8335 278.354C85.0366 278.688 85.1382 279.086 85.1382 279.547C85.1382 279.979 85.0303 280.377 84.8145 280.741C84.6029 281.1 84.2707 281.511 83.8179 281.972L81.6851 284.137H84.4399V283.337C84.4399 283.189 84.4759 283.083 84.5479 283.02C84.6198 282.956 84.7425 282.924 84.916 282.924C85.0895 282.924 85.2122 282.956 85.2842 283.02C85.3561 283.083 85.3921 283.189 85.3921 283.337V284.568C85.3921 284.725 85.3604 284.837 85.2969 284.905C85.2376 284.968 85.1361 285 84.9922 285H80.5869C80.443 285 80.3394 284.968 80.2759 284.905C80.2166 284.837 80.187 284.725 80.187 284.568C80.187 284.408 80.2188 284.293 80.2822 284.226L83.0752 281.395C83.4645 280.997 83.7375 280.667 83.894 280.404C84.0549 280.138 84.1353 279.852 84.1353 279.547C84.1353 279.154 84.0083 278.843 83.7544 278.614C83.5047 278.382 83.1493 278.265 82.688 278.265C82.2225 278.265 81.7845 278.384 81.374 278.621V279.319C81.374 279.467 81.3381 279.573 81.2661 279.636C81.1942 279.7 81.0715 279.731 80.8979 279.731C80.7244 279.731 80.6017 279.7 80.5298 279.636C80.4578 279.573 80.4219 279.467 80.4219 279.319V278.386C80.4219 278.221 80.4705 278.104 80.5679 278.037C80.8768 277.812 81.2111 277.639 81.5708 277.516C81.9305 277.389 82.3008 277.326 82.6816 277.326ZM92.9268 277.465C93.0706 277.465 93.1722 277.499 93.2314 277.567C93.2949 277.63 93.3267 277.74 93.3267 277.897C93.3267 277.999 93.314 278.083 93.2886 278.151L90.5845 284.848C90.5464 284.945 90.485 285.017 90.4004 285.063C90.32 285.114 90.2227 285.14 90.1084 285.14C89.9561 285.14 89.8312 285.108 89.7339 285.044C89.6408 284.985 89.5942 284.905 89.5942 284.803C89.5942 284.744 89.6048 284.691 89.626 284.645L92.2095 278.329H89.2007V279.255C89.2007 279.403 89.1647 279.509 89.0928 279.573C89.0208 279.636 88.8981 279.668 88.7246 279.668C88.5511 279.668 88.4284 279.636 88.3564 279.573C88.2845 279.509 88.2485 279.403 88.2485 279.255V277.897C88.2485 277.74 88.2782 277.63 88.3374 277.567C88.4009 277.499 88.5046 277.465 88.6484 277.465H92.9268ZM82.6816 292.326C83.1725 292.326 83.6021 292.415 83.9702 292.592C84.3426 292.766 84.6304 293.02 84.8335 293.354C85.0366 293.688 85.1382 294.086 85.1382 294.547C85.1382 294.979 85.0303 295.377 84.8145 295.741C84.6029 296.1 84.2707 296.511 83.8179 296.972L81.6851 299.137H84.4399V298.337C84.4399 298.189 84.4759 298.083 84.5479 298.02C84.6198 297.956 84.7425 297.924 84.916 297.924C85.0895 297.924 85.2122 297.956 85.2842 298.02C85.3561 298.083 85.3921 298.189 85.3921 298.337V299.568C85.3921 299.725 85.3604 299.837 85.2969 299.905C85.2376 299.968 85.1361 300 84.9922 300H80.5869C80.443 300 80.3394 299.968 80.2759 299.905C80.2166 299.837 80.187 299.725 80.187 299.568C80.187 299.408 80.2188 299.293 80.2822 299.226L83.0752 296.395C83.4645 295.997 83.7375 295.667 83.894 295.404C84.0549 295.138 84.1353 294.852 84.1353 294.547C84.1353 294.154 84.0083 293.843 83.7544 293.614C83.5047 293.382 83.1493 293.265 82.688 293.265C82.2225 293.265 81.7845 293.384 81.374 293.621V294.319C81.374 294.467 81.3381 294.573 81.2661 294.636C81.1942 294.7 81.0715 294.731 80.8979 294.731C80.7244 294.731 80.6017 294.7 80.5298 294.636C80.4578 294.573 80.4219 294.467 80.4219 294.319V293.386C80.4219 293.221 80.4705 293.104 80.5679 293.037C80.8768 292.812 81.2111 292.639 81.5708 292.516C81.9305 292.389 82.3008 292.326 82.6816 292.326ZM90.6924 292.326C91.1325 292.326 91.5303 292.419 91.8857 292.605C92.2454 292.787 92.5269 293.039 92.73 293.36C92.9331 293.682 93.0347 294.035 93.0347 294.42C93.0347 294.763 92.9373 295.07 92.7427 295.341C92.548 295.612 92.2941 295.832 91.981 296.001C92.3745 296.179 92.6898 296.426 92.9268 296.744C93.1637 297.061 93.2822 297.427 93.2822 297.842C93.2822 298.278 93.1701 298.671 92.9458 299.022C92.7215 299.369 92.4126 299.642 92.019 299.841C91.6255 300.04 91.1833 300.14 90.6924 300.14C90.2015 300.14 89.7593 300.04 89.3657 299.841C88.9722 299.642 88.6632 299.369 88.439 299.022C88.2147 298.671 88.1025 298.278 88.1025 297.842C88.1025 297.427 88.221 297.061 88.458 296.744C88.695 296.426 89.0081 296.179 89.3975 296.001C89.0843 295.832 88.8304 295.612 88.6357 295.341C88.4453 295.07 88.3501 294.763 88.3501 294.42C88.3501 294.035 88.4517 293.682 88.6548 293.36C88.8579 293.039 89.1372 292.787 89.4927 292.605C89.8524 292.419 90.2523 292.326 90.6924 292.326ZM90.6924 293.265C90.43 293.265 90.1951 293.314 89.9878 293.411C89.7847 293.504 89.6239 293.64 89.5054 293.817C89.3869 293.995 89.3276 294.202 89.3276 294.439C89.3276 294.655 89.3869 294.852 89.5054 295.03C89.6239 295.208 89.7868 295.347 89.9941 295.449C90.2057 295.55 90.4385 295.601 90.6924 295.601C90.9463 295.601 91.1769 295.55 91.3843 295.449C91.5959 295.347 91.7609 295.208 91.8794 295.03C91.9979 294.852 92.0571 294.655 92.0571 294.439C92.0571 294.202 91.9979 293.995 91.8794 293.817C91.7609 293.64 91.598 293.504 91.3906 293.411C91.1875 293.314 90.9548 293.265 90.6924 293.265ZM90.6924 296.483C90.3835 296.483 90.1105 296.541 89.8735 296.655C89.6366 296.769 89.4504 296.93 89.3149 297.137C89.1838 297.34 89.1182 297.573 89.1182 297.835C89.1182 298.098 89.1838 298.333 89.3149 298.54C89.4504 298.747 89.6366 298.91 89.8735 299.029C90.1105 299.143 90.3835 299.2 90.6924 299.2C91.0013 299.2 91.2743 299.143 91.5112 299.029C91.7482 298.91 91.9323 298.747 92.0635 298.54C92.1989 298.333 92.2666 298.098 92.2666 297.835C92.2666 297.573 92.1989 297.34 92.0635 297.137C91.9323 296.93 91.7482 296.769 91.5112 296.655C91.2743 296.541 91.0013 296.483 90.6924 296.483ZM82.6816 307.326C83.1725 307.326 83.6021 307.415 83.9702 307.592C84.3426 307.766 84.6304 308.02 84.8335 308.354C85.0366 308.688 85.1382 309.086 85.1382 309.547C85.1382 309.979 85.0303 310.377 84.8145 310.741C84.6029 311.1 84.2707 311.511 83.8179 311.972L81.6851 314.137H84.4399V313.337C84.4399 313.189 84.4759 313.083 84.5479 313.02C84.6198 312.956 84.7425 312.924 84.916 312.924C85.0895 312.924 85.2122 312.956 85.2842 313.02C85.3561 313.083 85.3921 313.189 85.3921 313.337V314.568C85.3921 314.725 85.3604 314.837 85.2969 314.905C85.2376 314.968 85.1361 315 84.9922 315H80.5869C80.443 315 80.3394 314.968 80.2759 314.905C80.2166 314.837 80.187 314.725 80.187 314.568C80.187 314.408 80.2188 314.293 80.2822 314.226L83.0752 311.395C83.4645 310.997 83.7375 310.667 83.894 310.404C84.0549 310.138 84.1353 309.852 84.1353 309.547C84.1353 309.154 84.0083 308.843 83.7544 308.614C83.5047 308.382 83.1493 308.265 82.688 308.265C82.2225 308.265 81.7845 308.384 81.374 308.621V309.319C81.374 309.467 81.3381 309.573 81.2661 309.636C81.1942 309.7 81.0715 309.731 80.8979 309.731C80.7244 309.731 80.6017 309.7 80.5298 309.636C80.4578 309.573 80.4219 309.467 80.4219 309.319V308.386C80.4219 308.221 80.4705 308.104 80.5679 308.037C80.8768 307.812 81.2111 307.639 81.5708 307.516C81.9305 307.389 82.3008 307.326 82.6816 307.326ZM90.6162 307.326C91.0775 307.326 91.5007 307.431 91.8857 307.643C92.2751 307.855 92.5882 308.161 92.8252 308.563C93.151 309.122 93.314 309.839 93.314 310.715C93.314 311.447 93.1574 312.139 92.8442 312.791C92.5353 313.443 92.0402 313.986 91.3589 314.422C90.6818 314.854 89.8185 315.093 88.769 315.14C88.6548 315.144 88.5638 315.106 88.4961 315.025C88.4326 314.945 88.4009 314.797 88.4009 314.581C88.4009 314.45 88.4199 314.357 88.458 314.302C88.5003 314.243 88.5596 314.211 88.6357 314.207C89.7614 314.147 90.6268 313.857 91.2319 313.337C91.8371 312.812 92.1989 312.101 92.3174 311.204C92.0973 311.492 91.8265 311.714 91.5049 311.871C91.1833 312.027 90.8405 312.105 90.4766 312.105C90.0111 312.105 89.59 312.006 89.2134 311.807C88.841 311.608 88.5469 311.327 88.3311 310.963C88.1195 310.599 88.0137 310.18 88.0137 309.706C88.0137 309.249 88.1216 308.841 88.3374 308.481C88.5532 308.117 88.8579 307.833 89.2515 307.63C89.6493 307.427 90.1042 307.326 90.6162 307.326ZM90.6162 308.265C90.2946 308.265 90.0132 308.324 89.772 308.443C89.5308 308.561 89.3446 308.731 89.2134 308.951C89.0822 309.167 89.0166 309.418 89.0166 309.706C89.0166 309.998 89.0801 310.254 89.207 310.474C89.3382 310.694 89.5223 310.866 89.7593 310.988C90.0005 311.107 90.2861 311.166 90.6162 311.166C90.9251 311.166 91.2023 311.109 91.4478 310.995C91.6932 310.876 91.8836 310.715 92.019 310.512C92.1587 310.305 92.2285 310.068 92.2285 309.801C92.2285 309.505 92.1608 309.241 92.0254 309.008C91.8942 308.775 91.7059 308.593 91.4604 308.462C91.2192 308.331 90.9378 308.265 90.6162 308.265ZM82.7451 322.326C83.2318 322.326 83.6571 322.412 84.021 322.586C84.3849 322.755 84.6663 322.999 84.8652 323.316C85.0641 323.629 85.1636 323.997 85.1636 324.42C85.1636 324.784 85.0789 325.1 84.9097 325.366C84.7404 325.629 84.5013 325.838 84.1924 325.995C84.5775 326.155 84.8758 326.39 85.0874 326.699C85.3032 327.008 85.4111 327.378 85.4111 327.81C85.4111 328.271 85.3075 328.678 85.1001 329.029C84.897 329.38 84.5986 329.653 84.2051 329.848C83.8115 330.042 83.3418 330.14 82.7959 330.14C82.3812 330.14 81.9622 330.068 81.5391 329.924C81.1159 329.78 80.7371 329.585 80.4028 329.34C80.2759 329.247 80.2124 329.141 80.2124 329.022C80.2124 328.938 80.2484 328.834 80.3203 328.711C80.4303 328.534 80.5531 328.445 80.6885 328.445C80.7562 328.445 80.8281 328.472 80.9043 328.527C81.1836 328.735 81.4862 328.9 81.812 329.022C82.1379 329.141 82.4658 329.2 82.7959 329.2C83.3206 329.2 83.7205 329.077 83.9956 328.832C84.2707 328.582 84.4082 328.242 84.4082 327.81C84.4082 327.374 84.2686 327.044 83.9893 326.82C83.7142 326.591 83.327 326.477 82.8276 326.477H82.3643C82.2204 326.477 82.1167 326.445 82.0532 326.382C81.994 326.314 81.9644 326.202 81.9644 326.045C81.9644 325.889 81.994 325.779 82.0532 325.715C82.1167 325.648 82.2204 325.614 82.3643 325.614H82.7134C83.1958 325.614 83.5618 325.512 83.8115 325.309C84.0612 325.106 84.186 324.81 84.186 324.42C84.186 324.061 84.0612 323.779 83.8115 323.576C83.5618 323.369 83.2085 323.265 82.7515 323.265C82.2606 323.265 81.8438 323.348 81.501 323.513V323.938C81.501 324.086 81.465 324.192 81.3931 324.255C81.3211 324.319 81.1984 324.351 81.0249 324.351C80.8514 324.351 80.7287 324.319 80.6567 324.255C80.5848 324.192 80.5488 324.086 80.5488 323.938V323.246C80.5488 323.153 80.5615 323.079 80.5869 323.024C80.6165 322.969 80.661 322.922 80.7202 322.884C81.3254 322.512 82.0003 322.326 82.7451 322.326ZM90.6924 322.326C91.234 322.326 91.708 322.489 92.1143 322.814C92.5247 323.136 92.84 323.593 93.0601 324.186C93.2843 324.774 93.3965 325.457 93.3965 326.236C93.3965 327.014 93.2843 327.698 93.0601 328.286C92.84 328.874 92.5269 329.331 92.1206 329.657C91.7144 329.979 91.2383 330.14 90.6924 330.14C90.1465 330.14 89.6704 329.979 89.2642 329.657C88.8579 329.331 88.5426 328.874 88.3184 328.286C88.0983 327.698 87.9883 327.014 87.9883 326.236C87.9883 325.457 88.0983 324.774 88.3184 324.186C88.5426 323.593 88.8579 323.136 89.2642 322.814C89.6746 322.489 90.1507 322.326 90.6924 322.326ZM90.6924 323.265C90.3581 323.265 90.0618 323.384 89.8037 323.621C89.5498 323.853 89.3509 324.194 89.207 324.643C89.0632 325.087 88.9912 325.618 88.9912 326.236C88.9912 326.854 89.0632 327.387 89.207 327.835C89.3509 328.28 89.5498 328.618 89.8037 328.851C90.0618 329.084 90.3581 329.2 90.6924 329.2C91.0267 329.2 91.3208 329.084 91.5747 328.851C91.8328 328.618 92.0339 328.28 92.1777 327.835C92.3216 327.387 92.3936 326.854 92.3936 326.236C92.3936 325.618 92.3216 325.087 92.1777 324.643C92.0339 324.194 91.8328 323.853 91.5747 323.621C91.3208 323.384 91.0267 323.265 90.6924 323.265ZM82.7451 337.326C83.2318 337.326 83.6571 337.412 84.021 337.586C84.3849 337.755 84.6663 337.999 84.8652 338.316C85.0641 338.629 85.1636 338.997 85.1636 339.42C85.1636 339.784 85.0789 340.1 84.9097 340.366C84.7404 340.629 84.5013 340.838 84.1924 340.995C84.5775 341.155 84.8758 341.39 85.0874 341.699C85.3032 342.008 85.4111 342.378 85.4111 342.81C85.4111 343.271 85.3075 343.678 85.1001 344.029C84.897 344.38 84.5986 344.653 84.2051 344.848C83.8115 345.042 83.3418 345.14 82.7959 345.14C82.3812 345.14 81.9622 345.068 81.5391 344.924C81.1159 344.78 80.7371 344.585 80.4028 344.34C80.2759 344.247 80.2124 344.141 80.2124 344.022C80.2124 343.938 80.2484 343.834 80.3203 343.711C80.4303 343.534 80.5531 343.445 80.6885 343.445C80.7562 343.445 80.8281 343.472 80.9043 343.527C81.1836 343.735 81.4862 343.9 81.812 344.022C82.1379 344.141 82.4658 344.2 82.7959 344.2C83.3206 344.2 83.7205 344.077 83.9956 343.832C84.2707 343.582 84.4082 343.242 84.4082 342.81C84.4082 342.374 84.2686 342.044 83.9893 341.82C83.7142 341.591 83.327 341.477 82.8276 341.477H82.3643C82.2204 341.477 82.1167 341.445 82.0532 341.382C81.994 341.314 81.9644 341.202 81.9644 341.045C81.9644 340.889 81.994 340.779 82.0532 340.715C82.1167 340.648 82.2204 340.614 82.3643 340.614H82.7134C83.1958 340.614 83.5618 340.512 83.8115 340.309C84.0612 340.106 84.186 339.81 84.186 339.42C84.186 339.061 84.0612 338.779 83.8115 338.576C83.5618 338.369 83.2085 338.265 82.7515 338.265C82.2606 338.265 81.8438 338.348 81.501 338.513V338.938C81.501 339.086 81.465 339.192 81.3931 339.255C81.3211 339.319 81.1984 339.351 81.0249 339.351C80.8514 339.351 80.7287 339.319 80.6567 339.255C80.5848 339.192 80.5488 339.086 80.5488 338.938V338.246C80.5488 338.153 80.5615 338.079 80.5869 338.024C80.6165 337.969 80.661 337.922 80.7202 337.884C81.3254 337.512 82.0003 337.326 82.7451 337.326ZM92.9775 344.137C93.1214 344.137 93.223 344.171 93.2822 344.238C93.3457 344.302 93.3774 344.412 93.3774 344.568C93.3774 344.725 93.3457 344.837 93.2822 344.905C93.223 344.968 93.1214 345 92.9775 345H88.6992C88.5553 345 88.4517 344.968 88.3882 344.905C88.3289 344.837 88.2993 344.725 88.2993 344.568C88.2993 344.412 88.3289 344.302 88.3882 344.238C88.4517 344.171 88.5553 344.137 88.6992 344.137H90.4067V338.69L88.8262 339.674C88.7542 339.717 88.6886 339.738 88.6294 339.738C88.494 339.738 88.3776 339.651 88.2803 339.478C88.221 339.376 88.1914 339.279 88.1914 339.186C88.1914 339.042 88.257 338.932 88.3882 338.855L90.7812 337.383C90.8659 337.332 90.9505 337.307 91.0352 337.307C91.1283 337.307 91.2044 337.338 91.2637 337.402C91.3271 337.461 91.3589 337.546 91.3589 337.656V344.137H92.9775ZM82.7451 352.326C83.2318 352.326 83.6571 352.412 84.021 352.586C84.3849 352.755 84.6663 352.999 84.8652 353.316C85.0641 353.629 85.1636 353.997 85.1636 354.42C85.1636 354.784 85.0789 355.1 84.9097 355.366C84.7404 355.629 84.5013 355.838 84.1924 355.995C84.5775 356.155 84.8758 356.39 85.0874 356.699C85.3032 357.008 85.4111 357.378 85.4111 357.81C85.4111 358.271 85.3075 358.678 85.1001 359.029C84.897 359.38 84.5986 359.653 84.2051 359.848C83.8115 360.042 83.3418 360.14 82.7959 360.14C82.3812 360.14 81.9622 360.068 81.5391 359.924C81.1159 359.78 80.7371 359.585 80.4028 359.34C80.2759 359.247 80.2124 359.141 80.2124 359.022C80.2124 358.938 80.2484 358.834 80.3203 358.711C80.4303 358.534 80.5531 358.445 80.6885 358.445C80.7562 358.445 80.8281 358.472 80.9043 358.527C81.1836 358.735 81.4862 358.9 81.812 359.022C82.1379 359.141 82.4658 359.2 82.7959 359.2C83.3206 359.2 83.7205 359.077 83.9956 358.832C84.2707 358.582 84.4082 358.242 84.4082 357.81C84.4082 357.374 84.2686 357.044 83.9893 356.82C83.7142 356.591 83.327 356.477 82.8276 356.477H82.3643C82.2204 356.477 82.1167 356.445 82.0532 356.382C81.994 356.314 81.9644 356.202 81.9644 356.045C81.9644 355.889 81.994 355.779 82.0532 355.715C82.1167 355.648 82.2204 355.614 82.3643 355.614H82.7134C83.1958 355.614 83.5618 355.512 83.8115 355.309C84.0612 355.106 84.186 354.81 84.186 354.42C84.186 354.061 84.0612 353.779 83.8115 353.576C83.5618 353.369 83.2085 353.265 82.7515 353.265C82.2606 353.265 81.8438 353.348 81.501 353.513V353.938C81.501 354.086 81.465 354.192 81.3931 354.255C81.3211 354.319 81.1984 354.351 81.0249 354.351C80.8514 354.351 80.7287 354.319 80.6567 354.255C80.5848 354.192 80.5488 354.086 80.5488 353.938V353.246C80.5488 353.153 80.5615 353.079 80.5869 353.024C80.6165 352.969 80.661 352.922 80.7202 352.884C81.3254 352.512 82.0003 352.326 82.7451 352.326ZM90.4766 352.326C90.9674 352.326 91.397 352.415 91.7651 352.592C92.1375 352.766 92.4253 353.02 92.6284 353.354C92.8315 353.688 92.9331 354.086 92.9331 354.547C92.9331 354.979 92.8252 355.377 92.6094 355.741C92.3978 356.1 92.0656 356.511 91.6128 356.972L89.48 359.137H92.2349V358.337C92.2349 358.189 92.2708 358.083 92.3428 358.02C92.4147 357.956 92.5374 357.924 92.7109 357.924C92.8844 357.924 93.0072 357.956 93.0791 358.02C93.151 358.083 93.187 358.189 93.187 358.337V359.568C93.187 359.725 93.1553 359.837 93.0918 359.905C93.0326 359.968 92.931 360 92.7871 360H88.3818C88.238 360 88.1343 359.968 88.0708 359.905C88.0116 359.837 87.9819 359.725 87.9819 359.568C87.9819 359.408 88.0137 359.293 88.0771 359.226L90.8701 356.395C91.2594 355.997 91.5324 355.667 91.689 355.404C91.8498 355.138 91.9302 354.852 91.9302 354.547C91.9302 354.154 91.8032 353.843 91.5493 353.614C91.2996 353.382 90.9442 353.265 90.4829 353.265C90.0174 353.265 89.5794 353.384 89.1689 353.621V354.319C89.1689 354.467 89.133 354.573 89.061 354.636C88.9891 354.7 88.8664 354.731 88.6929 354.731C88.5194 354.731 88.3966 354.7 88.3247 354.636C88.2528 354.573 88.2168 354.467 88.2168 354.319V353.386C88.2168 353.221 88.2655 353.104 88.3628 353.037C88.6717 352.812 89.006 352.639 89.3657 352.516C89.7254 352.389 90.0957 352.326 90.4766 352.326ZM82.7451 367.326C83.2318 367.326 83.6571 367.412 84.021 367.586C84.3849 367.755 84.6663 367.999 84.8652 368.316C85.0641 368.629 85.1636 368.997 85.1636 369.42C85.1636 369.784 85.0789 370.1 84.9097 370.366C84.7404 370.629 84.5013 370.838 84.1924 370.995C84.5775 371.155 84.8758 371.39 85.0874 371.699C85.3032 372.008 85.4111 372.378 85.4111 372.81C85.4111 373.271 85.3075 373.678 85.1001 374.029C84.897 374.38 84.5986 374.653 84.2051 374.848C83.8115 375.042 83.3418 375.14 82.7959 375.14C82.3812 375.14 81.9622 375.068 81.5391 374.924C81.1159 374.78 80.7371 374.585 80.4028 374.34C80.2759 374.247 80.2124 374.141 80.2124 374.022C80.2124 373.938 80.2484 373.834 80.3203 373.711C80.4303 373.534 80.5531 373.445 80.6885 373.445C80.7562 373.445 80.8281 373.472 80.9043 373.527C81.1836 373.735 81.4862 373.9 81.812 374.022C82.1379 374.141 82.4658 374.2 82.7959 374.2C83.3206 374.2 83.7205 374.077 83.9956 373.832C84.2707 373.582 84.4082 373.242 84.4082 372.81C84.4082 372.374 84.2686 372.044 83.9893 371.82C83.7142 371.591 83.327 371.477 82.8276 371.477H82.3643C82.2204 371.477 82.1167 371.445 82.0532 371.382C81.994 371.314 81.9644 371.202 81.9644 371.045C81.9644 370.889 81.994 370.779 82.0532 370.715C82.1167 370.648 82.2204 370.614 82.3643 370.614H82.7134C83.1958 370.614 83.5618 370.512 83.8115 370.309C84.0612 370.106 84.186 369.81 84.186 369.42C84.186 369.061 84.0612 368.779 83.8115 368.576C83.5618 368.369 83.2085 368.265 82.7515 368.265C82.2606 368.265 81.8438 368.348 81.501 368.513V368.938C81.501 369.086 81.465 369.192 81.3931 369.255C81.3211 369.319 81.1984 369.351 81.0249 369.351C80.8514 369.351 80.7287 369.319 80.6567 369.255C80.5848 369.192 80.5488 369.086 80.5488 368.938V368.246C80.5488 368.153 80.5615 368.079 80.5869 368.024C80.6165 367.969 80.661 367.922 80.7202 367.884C81.3254 367.512 82.0003 367.326 82.7451 367.326ZM90.54 367.326C91.0267 367.326 91.452 367.412 91.8159 367.586C92.1799 367.755 92.4613 367.999 92.6602 368.316C92.859 368.629 92.9585 368.997 92.9585 369.42C92.9585 369.784 92.8739 370.1 92.7046 370.366C92.5353 370.629 92.2962 370.838 91.9873 370.995C92.3724 371.155 92.6707 371.39 92.8823 371.699C93.0981 372.008 93.2061 372.378 93.2061 372.81C93.2061 373.271 93.1024 373.678 92.895 374.029C92.6919 374.38 92.3936 374.653 92 374.848C91.6064 375.042 91.1367 375.14 90.5908 375.14C90.1761 375.14 89.7572 375.068 89.334 374.924C88.9108 374.78 88.5321 374.585 88.1978 374.34C88.0708 374.247 88.0073 374.141 88.0073 374.022C88.0073 373.938 88.0433 373.834 88.1152 373.711C88.2253 373.534 88.348 373.445 88.4834 373.445C88.5511 373.445 88.623 373.472 88.6992 373.527C88.9785 373.735 89.2811 373.9 89.6069 374.022C89.9328 374.141 90.2607 374.2 90.5908 374.2C91.1156 374.2 91.5155 374.077 91.7905 373.832C92.0656 373.582 92.2031 373.242 92.2031 372.81C92.2031 372.374 92.0635 372.044 91.7842 371.82C91.5091 371.591 91.1219 371.477 90.6226 371.477H90.1592C90.0153 371.477 89.9116 371.445 89.8481 371.382C89.7889 371.314 89.7593 371.202 89.7593 371.045C89.7593 370.889 89.7889 370.779 89.8481 370.715C89.9116 370.648 90.0153 370.614 90.1592 370.614H90.5083C90.9907 370.614 91.3568 370.512 91.6064 370.309C91.8561 370.106 91.981 369.81 91.981 369.42C91.981 369.061 91.8561 368.779 91.6064 368.576C91.3568 368.369 91.0034 368.265 90.5464 368.265C90.0555 368.265 89.6387 368.348 89.2959 368.513V368.938C89.2959 369.086 89.2599 369.192 89.188 369.255C89.116 369.319 88.9933 369.351 88.8198 369.351C88.6463 369.351 88.5236 369.319 88.4517 369.255C88.3797 369.192 88.3438 369.086 88.3438 368.938V368.246C88.3438 368.153 88.3564 368.079 88.3818 368.024C88.4115 367.969 88.4559 367.922 88.5151 367.884C89.1203 367.512 89.7952 367.326 90.54 367.326ZM82.7451 382.326C83.2318 382.326 83.6571 382.412 84.021 382.586C84.3849 382.755 84.6663 382.999 84.8652 383.316C85.0641 383.629 85.1636 383.997 85.1636 384.42C85.1636 384.784 85.0789 385.1 84.9097 385.366C84.7404 385.629 84.5013 385.838 84.1924 385.995C84.5775 386.155 84.8758 386.39 85.0874 386.699C85.3032 387.008 85.4111 387.378 85.4111 387.81C85.4111 388.271 85.3075 388.678 85.1001 389.029C84.897 389.38 84.5986 389.653 84.2051 389.848C83.8115 390.042 83.3418 390.14 82.7959 390.14C82.3812 390.14 81.9622 390.068 81.5391 389.924C81.1159 389.78 80.7371 389.585 80.4028 389.34C80.2759 389.247 80.2124 389.141 80.2124 389.022C80.2124 388.938 80.2484 388.834 80.3203 388.711C80.4303 388.534 80.5531 388.445 80.6885 388.445C80.7562 388.445 80.8281 388.472 80.9043 388.527C81.1836 388.735 81.4862 388.9 81.812 389.022C82.1379 389.141 82.4658 389.2 82.7959 389.2C83.3206 389.2 83.7205 389.077 83.9956 388.832C84.2707 388.582 84.4082 388.242 84.4082 387.81C84.4082 387.374 84.2686 387.044 83.9893 386.82C83.7142 386.591 83.327 386.477 82.8276 386.477H82.3643C82.2204 386.477 82.1167 386.445 82.0532 386.382C81.994 386.314 81.9644 386.202 81.9644 386.045C81.9644 385.889 81.994 385.779 82.0532 385.715C82.1167 385.648 82.2204 385.614 82.3643 385.614H82.7134C83.1958 385.614 83.5618 385.512 83.8115 385.309C84.0612 385.106 84.186 384.81 84.186 384.42C84.186 384.061 84.0612 383.779 83.8115 383.576C83.5618 383.369 83.2085 383.265 82.7515 383.265C82.2606 383.265 81.8438 383.348 81.501 383.513V383.938C81.501 384.086 81.465 384.192 81.3931 384.255C81.3211 384.319 81.1984 384.351 81.0249 384.351C80.8514 384.351 80.7287 384.319 80.6567 384.255C80.5848 384.192 80.5488 384.086 80.5488 383.938V383.246C80.5488 383.153 80.5615 383.079 80.5869 383.024C80.6165 382.969 80.661 382.922 80.7202 382.884C81.3254 382.512 82.0003 382.326 82.7451 382.326ZM91.562 382.326C91.9302 382.326 92.1143 382.491 92.1143 382.821V386.852H93.1426C93.2865 386.852 93.388 386.885 93.4473 386.953C93.5107 387.017 93.5425 387.127 93.5425 387.283C93.5425 387.44 93.5107 387.552 93.4473 387.62C93.388 387.683 93.2865 387.715 93.1426 387.715H92.1143V389.137H92.9521C93.096 389.137 93.1976 389.171 93.2568 389.238C93.3203 389.302 93.3521 389.412 93.3521 389.568C93.3521 389.725 93.3203 389.837 93.2568 389.905C93.1976 389.968 93.096 390 92.9521 390H90.2227C90.0788 390 89.9751 389.968 89.9116 389.905C89.8524 389.837 89.8228 389.725 89.8228 389.568C89.8228 389.412 89.8524 389.302 89.9116 389.238C89.9751 389.171 90.0788 389.137 90.2227 389.137H91.1621V387.715H88.1279C87.984 387.715 87.8804 387.683 87.8169 387.62C87.7576 387.552 87.728 387.44 87.728 387.283C87.728 387.144 87.7492 387.044 87.7915 386.985L90.8638 382.713C90.9569 382.582 91.0563 382.484 91.1621 382.421C91.2679 382.357 91.4012 382.326 91.562 382.326ZM88.9912 386.852H91.1621L91.2129 383.703L88.9912 386.852Z" fill="#A29F9F"/>
<path d="M260 312.034C260 309.259 262.259 307.015 265.033 307.034L337.033 307.515C339.782 307.534 342 309.775 342 312.524C342 340.823 342 358.675 342 386.958C342 389.732 339.741 391.985 336.967 391.966L264.967 391.485C262.218 391.466 260 389.233 260 386.485V312.034Z" fill="#292929"/>
<path d="M260 312C260 309.239 262.239 307 265 307H337C339.761 307 342 309.239 342 312V323H260V312Z" fill="white"/>
<circle cx="280.5" cy="314.5" r="3.5" fill="#FBFE5D"/>
<circle cx="292.5" cy="314.5" r="3.5" fill="#74FE5D"/>
<circle cx="269.5" cy="314.5" r="3.5" fill="#FF6363"/>
<circle cx="269.5" cy="314.5" r="3.5" fill="#FF6363"/>
<path d="M269.957 330.297L265.791 328.674V327.555L270.795 329.77V330.455L269.957 330.297ZM265.791 331.727L269.969 330.068L270.795 329.945V330.625L265.791 332.846V331.727ZM276.678 334V334.891H271.305V334H276.678Z" fill="white"/>
<path d="M675.161 349.072C670.485 357.531 661.934 364.613 653.233 359.804C644.532 354.995 645.999 343.998 650.675 335.539C655.35 327.08 670.969 299.244 682.718 306.88C693.704 311.81 679.836 340.613 675.161 349.072Z" fill="#FFAB2E"/>
<path d="M544 435C544 446 538.851 446 532.5 446C526.149 446 521 446 521 435C521 428.925 526.149 424 532.5 424C538.851 424 544 428.925 544 435Z" fill="#FFAB2E"/>
<path d="M647 435C647 446 641.851 446 635.5 446C629.149 446 624 446 624 435C624 428.925 629.149 424 635.5 424C641.851 424 647 428.925 647 435Z" fill="#FFAB2E"/>
<path d="M665 375C665 413.66 655.459 445 580 445C510.179 445 495 413.66 495 375C495 336.34 504.541 249.5 580 249.5C655.459 249.5 665 336.34 665 375Z" fill="#FFC56F"/>
<path d="M656.5 414.5C652 424.145 641.388 444.319 597 444.319C555.928 444.319 544 446.391 544 428C544 409.609 552.612 351.319 597 351.319C641.388 351.319 656.5 396.109 656.5 414.5Z" fill="#FFB13C"/>
<path d="M515.069 249.274C514.898 247.057 517.113 245.431 519.176 246.258L546.893 257.369C549.077 258.245 549.449 261.179 547.552 262.572L522.137 281.233C520.24 282.625 517.552 281.392 517.37 279.046L515.069 249.274Z" fill="#FFC56F"/>
<path d="M641.082 246.259C643.146 245.431 645.361 247.058 645.189 249.275L642.886 279.046C642.705 281.392 640.016 282.626 638.12 281.233L612.705 262.571C610.809 261.179 611.181 258.244 613.365 257.369L641.082 246.259Z" fill="#FFC56F"/>
<circle cx="553" cy="308" r="6" fill="black"/>
<circle cx="623" cy="308" r="6" fill="black"/>
<path d="M593.821 322.213C592.682 323.23 590.96 323.23 589.822 322.213L584.256 317.237C582.202 315.401 583.501 312 586.255 312H597.388C600.142 312 601.44 315.401 599.387 317.237L593.821 322.213Z" fill="black"/>
<path d="M570.5 320V320C571.329 323.451 573.776 326.288 577.067 327.616L578.109 328.036C579.678 328.668 581.38 328.896 583.06 328.699V328.699C586.722 328.268 589.857 325.873 591.236 322.453L591.821 321" stroke="black" stroke-width="2.5"/>
<path d="M590.5 320V320C591.329 323.451 593.776 326.288 597.067 327.616L598.155 328.054C599.694 328.675 601.363 328.898 603.011 328.705V328.705C606.689 328.272 609.817 325.821 611.117 322.354L612 320" stroke="black" stroke-width="2.5"/>
<ellipse cx="550.5" cy="325.5" rx="7.5" ry="2.5" fill="#FFE8E8" fill-opacity="0.7"/>
<ellipse cx="628.5" cy="325.5" rx="7.5" ry="2.5" fill="#FFE8E8" fill-opacity="0.7"/>
<path d="M516.705 336.346C521.38 344.805 522.827 355.814 514.126 360.622C505.426 365.431 496.894 358.338 492.219 349.879C487.544 341.42 472.283 313.386 485 307.5C495.019 300.82 512.03 327.887 516.705 336.346Z" fill="#FFAB2E"/>
<path d="M312 180.291C317.82 178.071 322.276 173.265 324.048 167.293L325.322 163L326.105 166.193C327.72 172.782 332.58 178.096 339 180.291L338.486 180.5C332.361 182.982 327.858 188.33 326.455 194.789L325.322 200L323.66 193.68C322.127 187.852 318.048 183.025 312.557 180.543L312 180.291Z" fill="#FDFF94"/>
<path d="M331 196.281C334.45 194.961 337.088 192.109 338.136 188.566L338.895 186L339.363 187.916C340.317 191.823 343.196 194.976 347 196.281C343.18 197.835 340.373 201.175 339.5 205.206L338.895 208L337.998 204.578C337.034 200.9 334.463 197.852 331 196.281Z" fill="#D6FFEB"/>
<path d="M701 269.281C704.45 267.961 707.088 265.109 708.136 261.566L708.895 259L709.363 260.916C710.317 264.823 713.196 267.976 717 269.281C713.18 270.835 710.373 274.175 709.5 278.206L708.895 281L707.998 277.578C707.034 273.9 704.463 270.852 701 269.281Z" fill="#D6FFEB"/>
<path d="M485 151.281C488.45 149.961 491.088 147.109 492.136 143.566L492.895 141L493.363 142.916C494.317 146.823 497.196 149.976 501 151.281C497.18 152.835 494.373 156.175 493.5 160.206L492.895 163L491.998 159.578C491.034 155.9 488.463 152.852 485 151.281Z" fill="#D6FFEB"/>
<path d="M682 252.291C687.82 250.071 692.276 245.265 694.048 239.293L695.322 235L696.105 238.193C697.72 244.782 702.58 250.096 709 252.291L708.486 252.5C702.361 254.982 697.858 260.33 696.455 266.789L695.322 272L693.66 265.68C692.127 259.852 688.048 255.025 682.557 252.543L682 252.291Z" fill="#FDFF94"/>
<path d="M469 132.291C474.82 130.071 479.276 125.265 481.048 119.293L482.322 115L483.105 118.193C484.72 124.782 489.58 130.096 496 132.291L495.486 132.5C489.361 134.982 484.858 140.33 483.455 146.789L482.322 152L480.66 145.68C479.127 139.852 475.048 135.025 469.557 132.543L469 132.291Z" fill="#FDFF94"/>
</svg>
