<svg width="444" height="444" viewBox="0 0 444 444" fill="none" xmlns="http://www.w3.org/2000/svg">
<circle cx="222" cy="222" r="150" fill="#FFDDDB"/>
<path d="M194.573 307.939C182.691 312.171 171.591 313.706 161.274 312.542C150.922 311.278 141.977 307.488 134.438 301.171C126.9 294.854 121.246 286.403 117.475 275.819C112.247 261.14 110.352 247.131 111.789 233.791C113.327 220.416 117.736 208.944 125.017 199.374C132.263 189.704 141.677 182.806 153.26 178.681C164.044 174.84 173.228 174.719 180.812 178.319C188.36 181.82 193.752 188.113 196.989 197.2C199.158 203.291 199.803 208.575 198.922 213.052C198.141 217.494 195.753 220.426 191.759 221.849C188.963 222.844 186.535 222.978 184.475 222.249C182.415 221.52 180.94 219.907 180.051 217.411C179.731 216.512 179.344 214.793 178.89 212.254C178.422 209.045 177.868 206.542 177.228 204.745C173.991 195.658 167.53 192.84 157.844 196.289C151.254 198.637 145.727 203.024 141.266 209.452C136.804 215.88 134.219 223.946 133.512 233.649C132.769 243.253 134.443 253.797 138.533 265.28C142.801 277.263 149.454 285.358 158.492 289.565C167.494 293.673 178.535 293.397 191.616 288.738C198.107 286.426 204.363 283.298 210.384 279.353C216.47 275.272 222.952 270.094 229.831 263.818C231.116 262.686 232.257 261.941 233.256 261.586C234.853 261.017 236.265 261.189 237.491 262.103C238.716 263.017 239.667 264.422 240.343 266.319C242.512 272.41 240.818 278.078 235.259 283.321C229.271 288.941 222.7 293.87 215.545 298.106C208.454 302.207 201.463 305.485 194.573 307.939ZM335.503 183.984C337.8 183.166 339.625 183.078 340.98 183.721C342.434 184.328 343.445 185.431 344.014 187.029C344.939 189.625 344.958 192.206 344.072 194.772C343.285 197.303 341.262 199.205 338.003 200.478C330.085 203.523 322.782 205.45 316.093 206.257C314.303 223.66 310.126 239.101 303.561 252.579C297.061 265.921 288.769 274.389 278.683 277.981C268.298 281.68 258.408 278.395 249.012 268.126C239.616 257.858 231.254 242.438 223.927 221.868C217.668 204.294 213.296 188.072 210.814 173.203C209.863 167.691 209.866 163.751 210.824 161.385C211.845 158.883 214.353 156.921 218.348 155.498C224.938 153.151 229.247 154.823 231.274 160.514C231.488 161.114 231.779 162.248 232.148 163.916C235.555 182.957 239.854 199.767 245.047 214.346C250.488 229.624 255.88 240.812 261.222 247.912C266.628 254.875 271.877 257.45 276.97 255.636C282.162 253.787 286.524 248.183 290.054 238.824C293.584 229.465 295.957 218.436 297.173 205.738C289.731 204.113 283.395 200.856 278.165 195.967C272.9 190.979 268.863 184.54 266.053 176.652C263.243 168.763 262.076 161.696 262.552 155.45C263.092 149.069 264.979 143.783 268.213 139.594C271.546 135.368 275.809 132.331 281.002 130.481C287.393 128.205 293.253 128.706 298.584 131.983C304.015 135.225 308.152 140.84 310.998 148.828C315.088 160.312 317.055 173.733 316.899 189.091C322.512 188.105 328.713 186.402 335.503 183.984ZM280.807 170.215C284.293 180.001 290.017 186.12 297.979 188.572C297.89 176.001 296.548 166.071 293.951 158.782C292.458 154.588 290.824 151.738 289.049 150.232C287.24 148.626 285.386 148.161 283.489 148.837C280.793 149.797 279.165 152.177 278.606 155.977C278.011 159.677 278.745 164.423 280.807 170.215Z" fill="black"/>
<path d="M296.819 317.601C306.829 313.068 314.534 304.617 318.124 294.231L326.5 270L332.93 292.645C336.145 303.968 344.185 313.301 354.908 318.157L364.5 322.5L353.554 328.076C343.636 333.129 336.272 342.085 333.232 352.792L326.5 376.5L317.771 351.249C314.389 341.466 307.347 333.375 298.123 328.676L286 322.5L296.819 317.601Z" fill="#FEFFB9"/>
<path d="M88.8192 101.601C98.8293 97.0679 106.534 88.6166 110.124 78.231L118.5 54L124.93 76.6446C128.145 87.9683 136.185 97.3009 146.908 102.157L156.5 106.5L145.554 112.076C135.636 117.129 128.272 126.085 125.232 136.792L118.5 160.5L109.771 135.249C106.389 125.466 99.3468 117.375 90.1234 112.676L78 106.5L88.8192 101.601Z" fill="#FEFFB9"/>
<path d="M146 136.268C151.601 133.895 155.973 129.314 158.081 123.608L159.414 120L160.454 123.428C162.209 129.208 166.438 133.911 172 136.268V136.268V136.268C166.409 138.932 162.198 143.828 160.399 149.755L159.414 153L158.147 149.571C155.986 143.723 151.628 138.95 146 136.268V136.268V136.268Z" fill="#DAFFF2"/>
<path d="M273 355.268C278.601 352.895 282.973 348.314 285.081 342.608L286.414 339L287.454 342.428C289.209 348.208 293.438 352.911 299 355.268V355.268V355.268C293.409 357.932 289.198 362.828 287.399 368.755L286.414 372L285.147 368.571C282.986 362.723 278.628 357.95 273 355.268V355.268V355.268Z" fill="#DAFFF2"/>
</svg>
